<svg xmlns="http://www.w3.org/2000/svg" version="1.1" xmlns:xlink="http://www.w3.org/1999/xlink" xmlns:svgjs="http://svgjs.dev/svgjs" viewBox="0 0 800 800" opacity="1"><g stroke-width="0.5" stroke="#dfdfdf" fill="none"><path d="M735.9706529038808 366.8122729585359C739.1141187280109 456.68771705253243 489.747951617961 576.5159917930384 358.82650688392096 611.7389449805746C227.9050621498808 646.9618981681108 161.80888343568552 606.3355984932502 107.54771818048869 535.8824482587097C53.2865529252918 465.42929802416916 49.16663183655794 347.6358311317208 98.37291365897613 273.56382385477934C147.57919548139432 199.49181657783788 210.90500858540827 160.91005309944126 343.73787092809664 180.33681332939062C476.5707332707851 199.76357355933993 732.827187079751 276.93682886453934 735.9706529038808 366.8122729585359C739.1141187280109 456.68771705253243 489.747951617961 576.5159917930384 358.82650688392096 611.7389449805746 "></path><path d="M725.4715423440795 367.8493870443958C728.5167748612052 454.916223510455 486.9433004733446 570.9998646653203 360.11315088724314 605.1221005657458C233.28300130114178 639.2443364661715 169.25232817176516 599.8876086561504 116.68682433079323 531.6361193664393C64.1213204898213 463.38463007672806 60.130146935110304 349.27220902466877 107.79873245057797 277.5149519751317C155.46731796604558 205.75769492559465 216.814199410559 168.3816115558979 345.49603480503856 187.20128552866134C474.1778701995179 206.02095950142478 722.4263098269537 280.78255057833667 725.4715423440795 367.8493870443958C728.5167748612052 454.916223510455 486.9433004733446 570.9998646653203 360.11315088724314 605.1221005657458 "></path><path d="M714.9724623018561 368.8864858714667C717.9194615119779 453.14471470958847 484.1386798463062 565.4837222788129 361.39982540814367 598.5052408921281C238.660970969981 631.5267595054431 176.69580342542292 593.4396035602615 125.8259609986759 527.3897752153797C74.95611857192887 461.339946870498 71.09369255124085 350.90857165882767 117.22458175975788 281.466064836695C163.35547096827497 212.02355801456235 222.723420753288 175.85315475356555 347.2542291995584 194.06574246914306C471.7850376458289 212.27833018472057 712.0254630917343 284.628257033345 714.9724623018561 368.8864858714667C717.9194615119779 453.14471470958847 484.1386798463062 565.4837222788129 361.39982540814367 598.5052408921281 "></path><path d="M704.4733517420547 369.92361521611576C707.3221176451724 451.3732364263001 481.3340287016897 559.9676104098837 362.68646941146585 591.8884117360883C244.038910121242 623.8092130622929 184.13924816150262 586.9916289819507 134.96506714898044 523.1434615818982C85.79088613645831 459.295294181846 82.05720764979321 352.5449648105646 126.65040055135972 285.4172082158364C171.24359345292623 218.28945162110819 228.6326115784388 183.32472846881126 349.0123930765002 200.93022992720284C469.39217457456164 218.53573138559443 701.6245858389369 288.4739940059314 704.4733517420547 369.92361521611576C707.3221176451724 451.3732364263001 481.3340287016897 559.9676104098837 362.68646941146585 591.8884117360883 "></path><path d="M693.9742716998313 370.9607598195539C696.7248042959451 449.60177340180076 478.5294080746514 554.4515137997437 363.9731439323664 585.2715978388378C249.41687979008123 616.0916818779318 191.5827234151604 580.5436696624289 144.10420381686316 518.897163207206C96.62568421856588 457.250656751983 93.02075326592376 354.18137322109067 136.0762498605397 289.3683668537669C179.13174645515562 224.55536048644308 234.54183292116772 190.7963174428461 350.7705874710201 207.79473264405175C466.9993420208725 224.7931478452574 691.2237391037177 292.31974623730684 693.9742716998313 370.9607598195539C696.7248042959451 449.60177340180076 478.5294080746514 554.4515137997437 363.9731439323664 585.2715978388378 "></path><path d="M683.4751916576081 371.9978433878357C686.1274909467177 447.8302493421453 475.72478744761315 548.9353561544472 365.2598184532667 578.6547229064308C254.79484945892034 608.3740896584145 199.02619866881815 574.0956493077509 153.24334048474583 514.6508037973574C107.46048230067345 455.2059582869638 103.98429888205425 355.8177205964605 145.5020991697196 293.31946445654114C187.019899457385 230.82120831662178 240.4510542638967 198.2678453817246 352.52878186554005 214.65917432574435C464.6065094671835 231.05050326976414 680.8228923684984 296.1654374335261 683.4751916576081 371.9978433878357C686.1274909467177 447.8302493421453 475.72478744761315 548.9353561544472 365.2598184532667 578.6547229064308 "></path><path d="M672.9761116153846 373.0349574736956C675.5301775974903 446.05875580006784 472.9201668205749 543.419229026729 366.5464929741672 572.0378784916021C260.17281912775957 600.6565279564752 206.46967392247598 567.647659470651 162.3824771526285 510.404474905087C118.29528038278107 453.1612903395227 114.94784449818474 357.45409848940847 154.92794847889957 297.2705925768935C194.90805245961434 237.08708666437855 246.36027560662563 205.73940383818126 354.28697626006 221.52364652501512C462.2136769134944 237.307889211849 670.4220456332791 300.01115914732344 672.9761116153846 373.0349574736956C675.5301775974903 446.05875580006784 472.9201668205749 543.419229026729 366.5464929741672 572.0378784916021 "></path><path d="M662.4770315731613 374.07207155955564C664.9328642482628 444.2872622579904 470.1155461935364 537.9031018990108 367.8331674950675 565.4210340767734C265.55078879659874 592.9389662545359 213.91314917613374 561.1996696335513 171.52161382051116 506.1581460128165C129.13007846488864 451.1166223920817 125.91139011431528 359.09047638235637 164.35379778807948 301.2217206972458C202.79620546184373 243.35296501213531 252.26949694935456 213.21096229463797 356.0451706545799 228.38811872428585C459.8208443598053 243.56527515393378 660.0211988980599 303.8568808611208 662.4770315731613 374.07207155955564C664.9328642482628 444.2872622579904 470.1155461935364 537.9031018990108 367.8331674950675 565.4210340767734 "></path><path d="M651.9779667897271 375.1092161629937C654.3355661578246 442.5157992334912 467.31094082528716 532.3870052888707 369.1198572747571 558.8042201795228C270.92877372422697 585.221435070175 221.35663968858057 554.7517103140295 180.6607657471829 501.9118476381241C139.96489180578527 449.0719849622187 136.87495098923483 360.7268847928824 173.7796623560485 305.17287933517633C210.68437372286218 249.6188738774702 258.1787335508726 220.68255126867274 357.8033803078889 235.25262144113475C457.4280270649052 249.82269161359676 649.6203674216297 307.7026330924963 651.9779667897271 375.1092161629937C654.3355661578246 442.5157992334912 467.31094082528716 532.3870052888707 369.1198572747571 558.8042201795228 "></path><path d="M641.4788867475038 376.1462997312756C643.7382528085972 440.7442751738356 464.5063201982489 526.8708476435743 370.40653179565743 552.1873452471159C276.30674339306614 577.5038428506575 228.80011494223834 548.3036899593515 189.79990241506562 497.66548822827554C150.79968988789284 447.0272864971995 147.83849660536538 362.36323216825224 183.20551166522847 309.12397693795054C218.57252672509156 255.88472170764885 264.08795489360153 228.15407920755126 359.56157470240885 242.1170631228274C455.0351945112161 256.0800470381035 639.2195206864103 311.54832428871555 641.4788867475038 376.1462997312756C643.7382528085972 440.7442751738356 464.5063201982489 526.8708476435743 370.40653179565743 552.1873452471159 "></path><path d="M630.9798067052805 377.1834443347136C633.1409394593697 438.9728121493363 461.7016995712106 521.3547510334342 371.69320631655796 545.5705313498652C281.6847130619053 569.7863116662963 236.2435901958961 541.8557306398297 198.93903908294828 493.41918985358313C161.6344879700004 444.9826490673365 158.80204222149587 363.9996405787783 192.63136097440838 313.07513557588106C226.4606797273209 262.15063057298374 269.99717623633046 235.6256681815861 361.3197690969288 248.98156583967625C452.6423619575271 262.3374634977664 628.8186739511912 315.394076520091 630.9798067052805 377.1834443347136C633.1409394593697 438.9728121493363 461.7016995712106 521.3547510334342 371.69320631655796 545.5705313498652 "></path><path d="M620.4807266630571 378.2205584205736C622.5436261101424 437.2013186072588 458.8970789441721 515.8386239057158 372.97988083745827 538.9536869350366C287.0626827307445 562.068749964357 243.68706544955387 535.4077408027299 208.07817575083095 489.1728609613126C172.46928605210803 442.9379811198954 169.7655878376264 365.63601847172623 202.05721028358835 317.0262636962334C234.34883272955028 268.4165089207405 275.90639757905944 243.09722663804274 363.0779634914487 255.84603803894703C450.249529403838 268.59484943985126 618.4178272159719 319.23979823388834 620.4807266630571 378.2205584205736C622.5436261101424 437.2013186072588 458.8970789441721 515.8386239057158 372.97988083745827 538.9536869350366 "></path><path d="M609.9816313620447 379.25767250643355C611.9462975021258 435.4298250651814 456.09244305834477 510.3224967779977 374.26654009956974 532.3368425202077C292.4406371407946 554.3511882624178 251.13052544442257 528.9597509656301 217.21729715992456 484.9265320690422C183.30406887542654 440.8933131724543 180.72911819496784 367.27239636467414 211.48304433397925 320.97739181658574C242.2369704729906 274.6823872684973 281.81560366299925 250.5687850944994 364.8361426271796 262.71051023821775C447.8566815913598 274.8522353819361 608.0169652219636 323.0855199476857 609.9816313620447 379.25767250643355C611.9462975021258 435.4298250651814 456.09244305834477 510.3224967779977 374.26654009956974 532.3368425202077 "></path><path d="M599.4825513198214 380.29477133350446C601.3489841528985 433.65831626431486 453.2878224313065 504.80635439149046 375.55321462047016 525.71998284659C297.8186068096338 546.6336113016896 258.5740006980804 522.5117458697412 226.35643382780722 480.6801879179827C194.1388669575341 438.8486299662243 191.69266381109838 368.90875899883304 220.90889364315916 324.928504678149C250.12512347522 280.94825035746504 287.72482500572823 258.04032829216703 366.5943370216995 269.57496717869947C445.4638490376708 281.1096060652319 597.6161184867442 326.931226402694 599.4825513198214 380.29477133350446C601.3489841528985 433.65831626431486 453.2878224313065 504.80635439149046 375.55321462047016 525.71998284659 "></path><path d="M588.983471277598 381.3318854193644C590.7516708036711 431.8868227222374 450.4832018042681 499.29022726377207 376.8398891413706 519.1031384317612C303.19657647847293 538.9160495997503 266.01747595173816 516.0637560326412 235.49557049568995 476.4338590257122C204.97366503964167 436.8039620187832 202.65620942722887 370.54513689178094 230.33474295233913 328.87963279850135C258.0132764774494 287.2141287052218 293.63404634845716 265.5118867486237 368.35253141621945 276.4394393779702C443.0710164839817 287.3669920073167 587.215271751525 330.7769481164914 588.983471277598 381.3318854193644C590.7516708036711 431.8868227222374 450.4832018042681 499.29022726377207 376.8398891413706 519.1031384317612 "></path><path d="M578.4843912353747 382.36903002280246C580.1543574544437 430.1153596977382 447.67858117722983 493.774130653632 378.126563662271 512.4863245345106C308.57454614731216 531.1985184153891 273.46095120539593 509.6157967131195 244.6347071635726 472.1875606510198C215.80846312174924 434.7593245889202 213.61975504335936 372.181545302307 239.76059226151904 332.83079143643187C265.9014294796787 293.4800375705567 299.5432676911861 272.9834757226585 370.1107258107394 283.3039420948191C440.67818393029256 293.6244084669797 576.8144250163057 334.62270034786684 578.4843912353747 382.36903002280246C580.1543574544437 430.1153596977382 447.67858117722983 493.774130653632 378.126563662271 512.4863245345106 "></path><path d="M567.9853111931513 383.40611359108436C569.5570441052164 428.3438356380826 444.87396055019144 488.2579730083356 379.4132381831714 505.8694496021037C313.95251581615133 523.4809261958718 280.9044264590537 503.16777635844153 253.77384383145528 467.94120124117126C226.64326120385687 432.714626123901 224.5833006594899 373.8178926776768 249.186441570699 336.7818890392061C273.7895824819081 299.74588540073535 305.45248903391507 280.45500366153703 371.86892020525926 290.1683837765117C438.28535137660356 299.8817638914864 566.4135782810864 338.4683915440861 567.9853111931513 383.40611359108436C569.5570441052164 428.3438356380826 444.87396055019144 488.2579730083356 379.4132381831714 505.8694496021037 "></path><path d="M557.486231150928 384.4432581945224C558.959730755989 426.5723726135833 442.06933992315317 482.7418763981955 380.69991270407183 499.2526357048531C319.3304854849905 515.7633950115106 288.34790171271146 496.7198170389198 262.91298049933795 463.69490286647897C237.47805928596443 430.66998869403807 235.5468462756204 375.4543010882029 258.61229087987897 340.7330476771366C281.6777354841375 306.01179426607024 311.361710376644 287.9265926355718 373.6271145997792 297.0328864933606C435.89251882291444 306.1391803511493 556.0127315458672 342.31414377546156 557.486231150928 384.4432581945224C558.959730755989 426.5723726135833 442.06933992315317 482.7418763981955 380.69991270407183 499.2526357048531 "></path><path d="M546.9871358499156 385.4803722803824C548.3624021479725 424.80087907150585 439.2647040373257 477.2257492704773 381.9865719661832 492.6357912900244C324.7084398950406 508.04583330957144 295.7913617075802 490.27182720181986 272.05210190843155 459.44857397420844C248.31284210928294 428.62532074659697 246.51037663296188 377.0906789811508 268.0381249302698 344.68417579748893C289.5658732275778 312.277672613827 317.27091646058386 295.3981510920285 375.38529373551006 303.8973586926313C433.49967101043626 312.3965662932342 545.6118695518588 346.1598654892589 546.9871358499156 385.4803722803824C548.3624021479725 424.80087907150585 439.2647040373257 477.2257492704773 381.9865719661832 492.6357912900244 "></path><path d="M536.4880710664813 386.51748636624234C537.7651040575342 423.02938552942845 436.4600986690765 471.70962214275903 383.2732617458727 486.0189468751955C330.08642482266885 500.32827160763213 303.23485222002705 483.82383736472 281.19125383510334 455.20224508193803C259.14765545017957 426.58065279915587 257.47393750788143 378.72705687409876 277.46398949823885 348.63530391784127C297.45404148859626 318.5435509615838 323.1801530621019 302.86970954848516 377.14350338881906 310.7618308919021C431.1068537155363 318.653952235319 535.2110380754286 350.0055872030563 536.4880710664813 386.51748636624234C537.7651040575342 423.02938552942845 436.4600986690765 471.70962214275903 383.2732617458727 486.0189468751955 "></path><path d="M525.9889910242581 387.55461571089137C527.1677907083068 421.2579072461401 433.6554780420381 466.1935102738298 384.5599362667731 479.40211771915597C335.464394491508 492.610725164482 310.6783274736848 477.37586278640924 290.330390502986 450.95593144845657C269.9824535322872 424.5360001105039 268.437483124012 380.36345002583573 286.8898388074188 352.58644729698267C305.3421944908256 324.8094445681296 329.08937440483083 310.3412832637309 378.901697783339 317.62631834996193C428.7140211618471 324.91135343619294 524.8101913402094 353.8513241756427 525.9889910242581 387.55461571089137C527.1677907083068 421.2579072461401 433.6554780420381 466.1935102738298 384.5599362667731 479.40211771915597 "></path><path d="M515.4898957232457 388.5917145379623C516.5704621002903 419.4863984452736 430.8508421562108 460.6773678873226 385.84659552888445 472.78525804553806C340.8423489015581 484.89314820375364 318.1217874685535 470.92785769052034 299.4695119120796 446.70958729739704C280.8172363556057 422.49131690427373 279.4010134813534 381.99981265999463 296.31567285780966 356.537560158546C313.2303322342659 331.07530765709737 334.9985804887707 317.8128264613985 380.65987691906986 324.4907752904436C426.321173349369 331.1687241194887 514.409329346201 357.697030630651 515.4898957232457 388.5917145379623C516.5704621002903 419.4863984452736 430.8508421562108 460.6773678873226 385.84659552888445 472.78525804553806 "></path><path d="M504.99081568102235 389.62882862382224C505.9731487510629 417.71490490319616 428.0462215291724 455.1612407596043 387.13327004978487 466.1684136307093C346.2203185703973 477.17558650181445 325.5652627222113 464.4798678534205 308.6086485799623 442.46325840512657C291.65203443771327 420.44664895683263 290.36455909748395 383.63619055294254 305.7415221669896 360.48868827889834C321.1184852364953 337.34118600485414 340.9078018314996 325.28438491785516 382.4180713135898 331.3552474897144C423.9283407956799 337.4261100615735 504.0084826109818 361.54275234444833 504.99081568102235 389.62882862382224C505.9731487510629 417.71490490319616 428.0462215291724 455.1612407596043 387.13327004978487 466.1684136307093 "></path><path d="M494.491735638799 390.6659579684713C495.3758354018355 415.94342661990777 425.24160090213405 449.6451288906751 388.4199445706853 459.55158447466965C351.59828823923647 469.4580400586642 333.00873797586905 458.03189327510967 317.74778524784494 438.21694477164516C302.48683251982084 418.40199626818065 301.32810471361444 385.27258370467956 315.16737147616954 364.43983165803974C329.0066382387247 343.60707961139997 346.8170231742286 332.75595863310093 384.1762657081097 338.21973494777416C421.53550824199084 343.68351126244744 493.6076358757625 365.3884893170347 494.491735638799 390.6659579684713C495.3758354018355 415.94342661990777 425.24160090213405 449.6451288906751 388.4199445706853 459.55158447466965 "></path><path d="M483.9926555965757 391.70307205433124C484.7785220526082 414.1719330778304 422.4369802750957 444.1290017629569 389.7066190915857 452.9347400598409C356.97625790807564 461.74047835672496 340.4522132295269 451.5839034380098 326.8869219157276 433.9706158793747C313.3216306019284 416.35732832073955 312.2916503297449 386.90896159762747 324.5932207853495 368.39095977839213C336.8947912409541 349.87295795915674 352.72624451695754 340.2275170895576 385.9344601026296 345.08420714704494C419.1426756883018 349.94089720453223 483.20678914054315 369.2342110308321 483.9926555965757 391.70307205433124C484.7785220526082 414.1719330778304 422.4369802750957 444.1290017629569 389.7066190915857 452.9347400598409 "></path><path d="M473.49357555435233 392.7401861401912C474.1812087033808 412.4004395357529 419.6323596480574 438.61287463523865 390.9932936124861 446.3178956450122C362.3542275769148 454.0229166547857 347.89568848318464 445.13591360090993 336.02605858361034 429.7242869871042C324.15642868403603 414.3126603732985 323.25519594587547 388.54533949057543 334.01907009452947 372.34208789874447C344.7829442431834 356.1388363069135 358.63546585968646 347.6990755460142 387.6926544971496 351.94867934631566C416.74984313461266 356.1982831466171 472.805942405324 373.07993274462945 473.49357555435233 392.7401861401912C474.1812087033808 412.4004395357529 419.6323596480574 438.61287463523865 390.9932936124861 446.3178956450122 "></path><path d="M462.99449551212905 393.7773002260512C463.5838953541534 410.62894599367553 416.82773902101906 433.0967475075204 392.27996813338655 439.70105123018345C367.73219724575404 446.30535495284647 355.3391637368424 438.6879237638101 345.165195251493 425.47795809483375C334.9912267661436 412.2679924258574 334.21874156200596 390.18171738352333 343.4449194037094 376.2932160190968C352.6710972454128 362.4047146546703 364.5446872024154 355.17063400247093 389.45084889166947 358.81315154558644C414.35701058092354 362.45566908870194 462.4050956701047 376.92565445842683 462.99449551212905 393.7773002260512C463.5838953541534 410.62894599367553 416.82773902101906 433.0967475075204 392.27996813338655 439.70105123018345 "></path><path d="M452.49540021111665 394.81441431191115C452.98656674613693 408.8574524515981 414.02310313519166 427.58062037980216 393.5666273954979 433.08420681535466C373.11015165580415 438.5877932509072 362.7826237317111 432.23993392671025 354.3043166605866 421.2316292025633C345.8260095894621 410.2233244784163 345.18227191934744 391.8180952764713 352.8707534541003 380.24434413944914C360.5592349888531 368.67059300242704 370.4538932863553 362.6421924589276 391.20902802740034 365.67762374485716C411.9641627684454 368.71305503078673 452.00423367609636 380.77137617222417 452.49540021111665 394.81441431191115C452.98656674613693 408.8574524515981 414.02310313519166 427.58062037980216 393.5666273954979 433.08420681535466 "></path><path d="M441.99633542768237 395.85152839777106C442.38926865569863 407.0859589095206 411.2184977669424 422.06449325208393 394.8533171751874 426.46736240052593C378.4881365834324 430.8702315489679 370.22611424415794 425.7919440896104 363.44346858725834 416.9853003102928C356.66082293035873 408.1786565309752 356.145832794267 393.4544731694192 362.2966180220693 384.19547225980153C368.44740324987157 374.9364713501838 376.3631298878733 370.11375091538423 392.96723768070933 372.54209594412794C409.5713454735454 374.9704409728716 441.6034021996661 384.6170978860215 441.99633542768237 395.85152839777106C442.38926865569863 407.0859589095206 411.2184977669424 422.06449325208393 394.8533171751874 426.46736240052593 "></path><path d="M431.49724012666996 396.88864248363103C431.79194004768215 405.31446536744323 408.413861881115 416.54836612436566 396.13997643729874 419.8505179856972C383.8660909934825 423.1526698470287 377.66957423902664 419.3439542525105 372.58258999635194 412.73897141802235C367.49560575367724 406.1339885835342 367.1093631516085 395.09085106236716 371.72245207246016 388.14660038015387C376.3355409933119 381.20234969794063 382.27233597181316 377.58530937184094 394.7254168164402 379.40656814339866C407.17849766106724 381.22782691495644 431.2025402056578 388.4628195998189 431.49724012666996 396.88864248363103C431.79194004768215 405.31446536744323 408.413861881115 416.54836612436566 396.13997643729874 419.8505179856972 "></path><path d="M420.9981600844467 397.92577182828006C421.1946266984548 403.54298708415484 405.60924125407666 411.0322542554365 397.42665095819916 413.23368882965747C389.24406066232166 415.4351234038785 385.11304949268447 412.89597967419974 381.72172666423467 408.49265778454094C378.33040383578486 404.08933589488214 378.07290876773897 396.72724421410413 381.1483013816401 392.09774375929527C384.2236939955412 387.46824330448646 388.1815573145421 385.05688308708665 396.48361121096013 386.2710556014585C404.7856651073782 387.48522811583035 420.8016934704385 392.3085565724053 420.9981600844467 397.92577182828006C421.1946266984548 403.54298708415484 405.60924125407666 411.0322542554365 397.42665095819916 413.23368882965747 "></path><path d="M410.49908004222334 398.96288591414003C410.59731334922736 401.77149354207745 402.80462062703833 405.5161271277182 398.7133254790996 406.61684441482873C394.62203033116083 407.71756170193925 392.55652474634223 406.44798983709984 390.86086333211733 404.24632889227047C389.16520191789243 402.0446679474411 389.0364543838695 398.3636221070521 390.57415069082003 396.04887187964766C392.1118469977706 393.73412165224323 394.0907786572711 392.52844154354335 398.24180560548007 393.1355278007292C402.39283255368906 393.74261405791515 410.40084673521926 396.15427828620267 410.49908004222334 398.96288591414003C410.59731334922736 401.77149354207745 402.80462062703833 405.5161271277182 398.7133254790996 406.61684441482873 "></path></g></svg>