<svg xmlns="http://www.w3.org/2000/svg" version="1.1" xmlns:xlink="http://www.w3.org/1999/xlink" xmlns:svgjs="http://svgjs.dev/svgjs" viewBox="0 0 800 800" opacity="1"><defs></defs><g stroke-width="0.5" stroke="#dfdfdf" fill="none"><path d="M734.0865885563703 467.49895077097517C714.1326810549255 589.9655405290239 516.4381864881782 635.3160290906916 400.7318110280728 680.1296286942442C285.0254355679674 724.943228297797 248.82372102035174 721.7148005672149 178.6959863478633 682.6042288680275C108.56825167537488 643.4936571688402 65.9082803059701 572.6754896989374 64.11868460012937 492.39888453814456C62.3290888942887 412.12227937735156 80.02428478589394 380.63254215508334 170.10592695982723 297.2765240962219C260.18756913376046 213.92050603736044 379.0145958690623 56.82699229836959 496.5105670350089 92.28999785560984C614.0065382009556 127.75300341285015 754.0404960578151 345.03236101292623 734.0865885563703 467.49895077097517C714.1326810549255 589.9655405290239 516.4381864881782 635.3160290906916 400.7318110280728 680.1296286942442 "></path><path d="M723.6463817103094 465.38965910412094C704.3160338182847 584.0291679322308 512.7994922067484 627.9624537263462 400.7089409797712 671.3756283422879C288.6183897527941 714.7888029582297 253.54797878479144 711.6612635942283 185.61173582081824 673.7728972606405C117.6754928568451 635.8845309270528 76.34864559273421 567.2794311905845 74.61497475270102 489.51146994106625C72.88130391266787 411.7435086915482 90.02352493266045 381.2378257574758 177.29011578865828 300.48668326295376C264.55670664465606 219.7355407684317 379.6703887944798 67.55119933378427 493.4946108614905 101.90598596736083C607.3188329285014 136.26077260093734 742.9767296023342 346.75015027601114 723.6463817103094 465.38965910412094C704.3160338182847 584.0291679322308 512.7994922067484 627.9624537263462 400.7089409797712 671.3756283422879 "></path><path d="M713.2061748642485 463.28030640211045C694.499386581644 578.0927343002813 509.16079792531855 620.6088173268447 400.68607093146966 662.6215669551754C292.21134393762077 704.6343165835059 258.27223654923114 701.6076655860853 192.52748529377322 664.9415046180972C126.78273403831531 628.275343650109 86.78901087949833 561.8833116470753 85.11126490527266 486.6239943088319C83.43351893104699 411.36467697058845 100.02276507942696 381.84304832471196 184.47430461748934 303.69678139452935C268.9258441555518 225.5505144643467 380.32618171989736 78.27534533404275 490.47865468797227 111.52191304395552C600.6311276560472 144.7684807538683 731.912963146853 348.4678785039398 713.2061748642485 463.28030640211045C694.499386581644 578.0927343002813 509.16079792531855 620.6088173268447 400.68607093146966 662.6215669551754 "></path><path d="M702.7659680181876 461.1708926649437C684.6827393450031 572.1562396331756 505.5221036438886 613.2551198921868 400.663200883168 653.8674445329063C295.80429812244745 694.4797691736261 262.99649431367084 691.5540065427862 199.44323476672815 656.1100509403975C135.88997521978553 620.666095338009 97.22937616626245 556.4871310684097 95.60755505784431 483.7364576414411C93.98573394942616 410.98578421447246 110.02200522619347 382.4482098567919 191.65849344632045 306.9068184909487C273.2949816664475 231.3654271251055 380.98197464531484 88.99943029914499 487.4626985144539 121.13777908539396C593.9434223835931 153.27612787164298 720.849196691372 350.1855456967121 702.7659680181876 461.1708926649437C684.6827393450031 572.1562396331756 505.5221036438886 613.2551198921868 400.663200883168 653.8674445329063 "></path><path d="M692.3257611721267 459.06166203324585C674.8660921083625 566.2199280715386 501.8834093624587 605.9016055629977 400.6403308348665 645.1135052161063C299.39725230727413 684.3254048692148 267.72075207811054 681.5005306049557 206.35898423968314 647.2787803681667C144.99721640125574 613.0570301313778 107.66974145302657 551.0911335952129 106.10384521041595 480.84910407951907C104.53794896780533 410.6070745638252 120.02124537295992 383.05355449434046 198.84268227515156 310.1170386928368C277.6641191773431 237.18052289133294 381.6377675707323 99.72369836971598 484.44674234093554 130.7538282323012C587.2557171111389 161.78395809488643 709.785430235891 351.90339599495314 692.3257611721267 459.06166203324585C674.8660921083625 566.2199280715386 501.8834093624587 605.9016055629977 400.6403308348665 645.1135052161063 "></path><path d="M681.8855543260659 456.952217778501C665.0494448717218 560.2834028868547 498.24471508102874 598.5478776107618 400.61746078656483 636.3593522762592C302.9902064921009 674.1708269417569 272.44500984255023 671.4468410440783 213.27473371263807 638.447296172889C154.10445758272596 605.4477513016996 118.1101067397907 545.6949224989692 116.6001353629876 477.96153689455014C115.0901639861845 410.2281512901311 130.02048551972644 383.6586855088424 206.02687110398261 313.3270452716779C282.0332566882388 242.99540503451357 382.2935604961498 110.44775281724003 481.4307861674172 140.36966375616151C580.5680118386846 170.291574695083 698.7216637804099 353.6210326701473 681.8855543260659 456.952217778501C665.0494448717218 560.2834028868547 498.24471508102874 598.5478776107618 400.61746078656483 636.3593522762592 "></path><path d="M671.4453474800049 454.8429261116469C655.232797635081 554.3470302900615 494.60602079959904 591.1943022464164 400.59459073826326 627.6053519243029C306.5831606769276 664.0164016021895 277.16926760698993 661.3933040710916 220.19048318559305 629.6159645655018C163.21169876419617 597.8386250599121 128.55047202655481 540.2988639906162 127.09642551555925 475.07412229747194C125.64237900456368 409.84938060432773 140.01972566649295 384.2639691112347 213.21105993281373 316.53720443840984C286.4023941991345 248.81043976558487 382.94935342156725 121.17195985265477 478.4148299938988 149.9856518679125C573.8803065662304 178.7993438831702 687.6578973249289 355.3388219332321 671.4453474800049 454.8429261116469C655.232797635081 554.3470302900615 494.60602079959904 591.1943022464164 400.59459073826326 627.6053519243029 "></path><path d="M661.005140633944 452.73363444479264C645.4161503984403 548.4106576932683 490.9673265181691 583.8407268820711 400.5717206899617 618.8513515723466C310.1761148617543 653.8619762626221 281.89352537142963 651.3397670981049 227.10623265854798 620.7846329581148C172.3189399456664 590.2294988181246 138.99083731331888 534.9028054822631 137.59271566813084 472.18670770039375C136.1945940229428 409.47060991852413 150.01896581325946 384.86925271362713 220.39524876164478 319.7473636051416C290.7715317100301 254.62547449665612 383.6051463469847 131.8961668880695 475.39887382038046 159.60163997966345C567.1926012937763 187.30711307125745 676.5941308694479 357.0566111963169 661.005140633944 452.73363444479264C645.4161503984403 548.4106576932683 490.9673265181691 583.8407268820711 400.5717206899617 618.8513515723466 "></path><path d="M650.5649337878831 450.6242207076259C635.5995031617995 542.4741630261626 487.32863223673917 576.4870294474132 400.5488506416601 610.0972291500777C313.76906904658097 643.7074288527422 286.6177831358693 641.2861080548057 234.0219821315029 611.9531792804153C181.4261811271366 582.6202505060247 149.431202600083 529.5066249035976 148.08900582070248 469.29917103300295C146.74680904132197 409.09171716240826 160.0182059600259 385.47441424570707 227.5794375904759 322.95740070156097C295.1406692209258 260.4403871574149 384.2609392724022 142.62025185317168 472.3829176468621 169.21750602110194C560.5048960213221 195.81476018903214 665.5303644139668 358.7742783890893 650.5649337878831 450.6242207076259C635.5995031617995 542.4741630261626 487.32863223673917 576.4870294474132 400.5488506416601 610.0972291500777 "></path><path d="M640.1247422006113 448.5148832644045C625.7828711839479 536.5377446530022 483.6899532140983 569.1334083067006 400.5259958521476 601.3431830217542C317.3620384901967 633.5529577368077 291.342056159098 631.2325253054519 240.93774686324696 603.1218018966608C190.53343756739588 575.01107848787 159.87158314563618 524.1105206188774 158.5853112320632 466.41171065955746C157.2990393184902 408.7129007002376 170.01746136558148 386.0796520717323 234.763641678096 326.16751409192557C299.5098219906106 266.25537611211894 384.91674745660885 153.34441311221923 469.3669767321329 178.8334483564857C553.817206007657 204.32248360075215 654.4666132172747 360.4920218758069 640.1247422006113 448.5148832644045C625.7828711839479 536.5377446530022 483.6899532140983 569.1334083067006 400.5259958521476 601.3431830217542 "></path><path d="M629.6845353545505 446.405530562394C615.9662239473071 530.6013110210527 480.0512589326685 561.7797719071991 400.50312580384593 592.5891216346415C320.9549926750235 623.3984713620839 296.0663139235377 621.1789272973089 247.85349633620194 594.2904092541175C199.64067874886615 567.4018912109262 170.3119484324003 518.7144010753682 169.08160138463484 463.524235027323C167.85125433686937 408.33406897927784 180.016701512348 386.6848746389684 241.94783050692712 329.37761222350116C303.8789595015062 272.07034980803394 385.5725403820263 164.06855911247771 466.35102055861455 188.44937543308038C547.1295007352028 212.8301917536831 643.4028467617937 362.2097501037355 629.6845353545505 446.405530562394C615.9662239473071 530.6013110210527 480.0512589326685 561.7797719071991 400.50312580384593 592.5891216346415 "></path><path d="M619.2443285084896 444.29617786038364C606.1495767106665 524.6648773891031 476.41256465123854 554.4261355076975 400.48025575554436 583.8350602475289C324.5479468598502 613.2439849873604 300.7905716879774 611.1253292891661 254.76924580915687 585.4590166115743C208.74791993033637 559.7927039339825 180.75231371916442 513.3182815318589 179.57789153720648 460.6367593950886C178.40346935524855 407.9552372583182 190.0159416591145 387.29009720620456 249.13201933575817 332.58771035507675C308.2480970124019 277.88532350394894 386.2283333074438 174.7927051127362 463.3350643850962 198.06530250967512C540.4417954627486 221.33789990661404 632.3390803063128 363.927478331664 619.2443285084896 444.29617786038364C606.1495767106665 524.6648773891031 476.41256465123854 554.4261355076975 400.48025575554436 583.8350602475289 "></path><path d="M608.8041216624287 442.1868404171622C596.3329294740256 518.7284590159427 472.7738703698087 547.0725143669849 400.4573857072428 575.0810141192053C328.14090104467687 603.0895138714258 305.5148294524171 601.071746539812 261.6849952821118 576.6276392278199C217.85516111180658 552.1835319158279 191.19267900592854 507.92217724713873 190.07418168977813 457.7492990216431C188.95568437362772 407.57642079614743 200.01518180588096 387.8953350322298 256.3162081645893 335.7978237454414C312.61723452329755 283.700312458653 386.88412623286126 185.5168663717837 460.31910821157794 207.68124484505887C533.7540901902944 229.84562331833405 621.2753138508317 365.6452218183817 608.8041216624287 442.1868404171622C596.3329294740256 518.7284590159427 472.7738703698087 547.0725143669849 400.4573857072428 575.0810141192053 "></path><path d="M598.3638842987897 440.07747245636267C586.5162517198069 512.7920101252041 469.13514557080066 539.7188627086944 400.434485141363 566.3269374733037C331.7338247119254 592.935012237913 310.23905669927865 591.01813327288 268.60071423748866 567.7962313264875C226.96237177569867 544.574329380095 201.63301377511453 502.5260424448403 200.57044132477165 454.86180813061947C199.5078688744287 407.19757381639874 210.01439143506934 388.50054234067693 263.5003664758422 339.00790661822793C316.9863415166151 289.51527089577894 387.5398886407006 196.24099711325312 457.30312152048145 217.29715666286455C527.0663544002621 238.35331621247593 610.2115168777725 367.36293478752117 598.3638842987897 440.07747245636267C586.5162517198069 512.7920101252041 469.13514557080066 539.7188627086944 400.434485141363 566.3269374733037 "></path><path d="M587.9237232290959 437.96818078950855C576.6996502595332 506.85563752841097 465.4964970657379 532.365287344349 400.4116608694287 557.5729371213474C335.32682467311935 582.7805868983457 314.96336024008554 580.9645962998934 275.51650948681083 558.9648997191005C236.06965873353607 536.9652031383075 212.07342483824584 497.1299839364874 211.06677725371048 451.9743935335413C210.06012966917507 406.81880313059526 220.01367735820304 389.10582594306936 270.6846010810405 342.2180657849598C321.355524803878 295.3303056268502 388.19572734248527 206.96520414866785 454.2872111233303 226.9131447746155C520.3786949041752 246.86108540056318 599.1477961986586 369.080724050606 587.9237232290959 437.96818078950855C576.6996502595332 506.85563752841097 465.4964970657379 532.365287344349 400.4116608694287 557.5729371213474 "></path><path d="M577.4834706066679 435.85884334628713C566.8829572465254 500.91921915525063 461.8577570079409 525.0116662036364 400.38874504475984 548.8188909930238C338.91973308157884 572.6261157824111 319.68757222815805 570.9110135505396 282.4322131833986 550.1335223353462C245.1768541386391 529.3560311201529 222.51374434864277 491.7338796517671 221.56302162991494 449.0869331600958C220.61229891118705 406.4399866684246 230.01287172860236 389.7110637690946 277.8687441335044 345.42817917532443C325.72461653840645 301.14529458155425 388.85147449153555 217.6893654077154 451.27120917344473 236.5290871099993C513.6909438553538 255.3688088122832 588.0839839668105 370.79846753732363 577.4834706066679 435.85884334628713C566.8829572465254 500.91921915525063 461.8577570079409 525.0116662036364 400.38874504475984 548.8188909930238 "></path><path d="M567.0432790193961 433.74949064427665C557.0663252686736 494.982785523301 458.21907798530003 517.6580298041349 400.36589025524734 540.0648296059112C342.51270252519464 562.4716294076875 324.4118452513868 560.8574155423964 289.34797791514256 541.3021296928027C254.28411057889838 521.7468438432091 232.95412489419596 486.3377601082577 232.05932704127565 446.19945752786134C231.1645291883553 406.06115494746484 240.01212713415794 390.31628633633073 285.05294822112455 348.6382773069C330.09376930809117 306.96026827746925 389.5072826757421 228.41351140797383 448.25526825871543 246.14501418659398C507.0032538416888 263.87651696521414 577.0202327701185 372.5161957652522 567.0432790193961 433.74949064427665C557.0663252686736 494.982785523301 458.21907798530003 517.6580298041349 400.36589025524734 540.0648296059112 "></path><path d="M556.6031026909134 431.64013794226616C547.2497085496111 489.0463518913516 454.58041422144834 510.3043934046333 400.3430507245239 531.3107682187986C346.10568722759945 552.3171430329639 329.13613353340463 550.8038175342535 296.2637579056757 532.4707370502595C263.3913822779467 514.1376565662654 243.3945206985382 480.9416405647486 242.55564771142537 443.3119818956269C241.7167747243126 405.68232322650516 250.01139779850251 390.9215089035669 292.23716756753373 351.8483754384756C334.46293733656495 312.77524197338425 390.1631061187377 239.13765740823231 445.2393426027752 255.76094126318873C500.3155790868127 272.3842251181451 565.9564968322156 374.23392399318084 556.6031026909134 431.64013794226616C547.2497085496111 489.0463518913516 454.58041422144834 510.3043934046333 400.3430507245239 531.3107682187986 "></path><path d="M546.1628653272743 429.5308157578338C537.4330307953921 483.1099487769802 450.9416894224403 502.9507875227098 400.3201501586442 522.556737349264C349.698610894848 542.1626871758183 333.8603607802662 540.7502500436888 303.1794768610525 523.6393749252943C272.4985929418388 506.52849980689984 253.8348554677242 475.54555153881734 253.0519073464189 440.42453678097047C252.26895922511358 405.30352202312355 260.0106074276909 391.52676198838117 299.4213258787867 355.05850408762933C338.8320443298825 318.59024618687744 390.8188685265771 249.86183392606893 442.2233559116787 265.37689885736154C493.6278432967804 280.89196378865415 554.8926998591564 375.9516827386875 546.1628653272743 429.5308157578338C537.4330307953921 483.1099487769802 450.9416894224403 502.9507875227098 400.3201501586442 522.556737349264 "></path><path d="M535.7226737400024 427.4214477970344C527.6163988175406 477.17349988624164 447.3030103997995 495.5971358644192 400.29729536913163 513.8026607033623C353.2915803384638 532.0081855423057 338.58463380349497 530.6966367767568 310.0952415927965 514.8079670239619C281.6058493820981 498.919297271167 264.2752360132774 470.149416736519 263.5482127577796 437.5370458899469C262.8211895022818 404.9246750433748 270.0098628332465 392.1319692968283 306.60552996640683 358.26858696041586C343.20119709956725 324.4052046240034 391.4746767107836 260.5859646675383 439.2074149969494 274.99281067516716C486.94015328311525 289.39965668279604 543.8289486624644 377.669395707827 535.7226737400024 427.4214477970344C527.6163988175406 477.17349988624164 447.3030103997995 495.5971358644192 400.29729536913163 513.8026607033623 "></path><path d="M525.2824821527306 425.3120950950239C517.7997668396888 471.23706625429224 443.66433137715865 488.2434994649175 400.2744405796191 505.0485993162498C356.88454978207955 521.853699167582 343.3089068267237 520.6430387686138 317.0110063245405 505.9765743814186C290.71310582235736 491.31010999422324 274.71561655883056 464.75329719300976 274.0445181691403 434.6495702577124C273.37341977945005 404.54584332241507 280.00911823880205 392.73719186406447 313.789734054027 361.47868509199145C347.57034986925197 330.2201783199184 392.13048489499016 271.3101106677968 436.1914740822201 284.6087377517619C480.2524632694501 297.907364835727 532.7651974657724 379.3871239357556 525.2824821527306 425.3120950950239C517.7997668396888 471.23706625429224 443.66433137715865 488.2434994649175 400.2744405796191 505.0485993162498 "></path><path d="M514.8422600478807 423.2027881693806C507.983104344259 465.3006783987099 440.02562183693976 480.88990884178315 400.25155527252844 496.29458370550435C360.4774887081172 511.69925856922555 348.0331493323743 510.58948653683797 323.92674053870644 497.14522751524237C299.8203317450385 483.70096849364677 285.1559665868056 459.3572234258677 284.5407930629229 431.7621404018451C283.92561953904016 404.1670573778225 290.00834312677944 393.3424602076678 320.973907624069 364.6888289999342C351.93947212135856 336.03519779220056 392.7862625616186 282.03430244442245 433.1755026499127 294.2247106047238C473.56474273820686 306.4151187650251 521.7014157515023 381.10489794005133 514.8422600478807 423.2027881693806C507.983104344259 465.3006783987099 440.02562183693976 480.88990884178315 400.25155527252844 496.29458370550435 "></path><path d="M504.4020684606089 421.09343546737017C498.16647236640733 459.3642447667604 436.3869428142989 473.53627244228153 400.2287004830159 487.5405223183917C364.07045815173296 501.544772194502 352.75742235560307 500.53588852869507 330.84250527045043 488.3138348726991C308.9275881852978 476.091781216703 295.5963471323588 453.96110388235843 295.0370984742836 428.8746647696106C294.4778498162084 403.7882256568628 300.007598532335 393.94768277490397 328.1581117116892 367.89892713150977C356.30862489104334 341.85017148811556 393.44207074582516 292.75844844468094 430.1595617351835 303.8406376813185C466.8770527245417 314.9228269179561 510.6376645548104 382.82262616797993 504.4020684606089 421.09343546737017C498.16647236640733 459.3642447667604 436.3869428142989 473.53627244228153 400.2287004830159 487.5405223183917 "></path><path d="M493.9618463557589 418.98408276535974C488.34980987097754 453.42781113481095 432.7482332740799 466.18263604277996 400.2058151759253 478.7864609312792C367.6633970777706 491.39028581977834 357.4816648612537 490.48229052055217 337.75823948461635 479.4824422301557C318.03481410797895 468.4825939397592 306.03669716033386 448.5649843388492 305.5333733680662 425.9871891373761C305.0300495757985 403.4093939359031 310.00682342031246 394.55290534214015 335.34228528173117 371.10902526308536C360.67774714314993 347.66514518403056 394.0978484124536 303.48259444493937 427.1435903028761 313.4565647579132C460.18933219329847 323.43053507088706 499.57388284054025 384.5403543959085 493.9618463557589 418.98408276535974C488.34980987097754 453.42781113481095 432.7482332740799 466.18263604277996 400.2058151759253 478.7864609312792 "></path><path d="M483.521624250909 416.8747453221383C478.53314737554774 447.4913927616505 429.10952373386095 458.82901490206746 400.1829298688346 470.0324148029556C371.25633600380826 481.23581470384374 362.20590736690434 480.4287077711982 344.6739736987822 470.65106484640137C327.1420400306601 460.8734219216046 316.4770471883089 443.16888005412886 316.02964826184876 423.09972876393067C315.58224933538855 403.0305774737324 320.0060483082899 395.15814316816534 342.5264588517732 374.31913865345C365.0468693952565 353.4801341387346 394.753626079082 314.2067557039869 424.12761887056865 323.072507093297C453.5016116620553 331.93825848260707 488.51010112627023 386.2580978826261 483.521624250909 416.8747453221383C478.53314737554774 447.4913927616505 429.10952373386095 458.82901490206746 400.1829298688346 470.0324148029556 "></path><path d="M473.0814631812152 414.7654078789169C468.7165459152742 441.5549743884901 425.47087522879826 451.4753937613549 400.1601055969002 461.278368674632C374.8493359650021 471.08134358790915 366.9302109077112 470.3751250218444 351.5897689481044 461.81968746264715C336.24932698849756 453.2642499034499 326.9174582514402 437.77277576940867 326.5259841907876 420.21226839048524C326.1345101301349 402.6517610115618 330.0053342314236 395.7633809941906 349.71069345697146 377.52925204381467C369.41605268251936 359.2951230934387 395.40946478086664 324.93091696303446 421.1117084734175 332.68844942868077C446.8139521659683 340.4459818943271 477.44638044715634 387.97584136934375 473.0814631812152 414.7654078789169C468.7165459152742 441.5549743884901 425.47087522879826 451.4753937613549 400.1601055969002 461.278368674632 "></path><path d="M462.64125633515437 412.6560551769065C458.89989867863346 435.61854075654065 421.8321809473684 444.12175736185327 400.1372355485986 452.52430728751943C378.44229014982886 460.92685721318554 371.6544686721509 460.3215270137014 358.5055184210593 452.9882948201038C345.3565681699678 445.65506262650615 337.35782353820434 432.3766562258994 337.02227434335924 417.32479275825074C336.6867251485141 402.27292929060206 340.00457437819006 396.36860356142677 356.89488228580257 380.73935017539026C373.785190193415 365.1100967893537 396.06525770628417 335.65506296329295 418.0957522998991 342.30437650527546C440.1262468935141 348.953690047258 466.38261399167527 389.6935695972723 462.64125633515437 412.6560551769065C458.89989867863346 435.61854075654065 421.8321809473684 444.12175736185327 400.1372355485986 452.52430728751943 "></path><path d="M452.20103423030446 410.546702474896C449.08323618320367 429.68210712459114 418.19347140714945 436.7681209623517 400.11435024150796 443.7702459004068C382.0352290758665 450.77237083846194 376.37871117780156 450.26792900555847 365.42125263522524 444.1569021775605C354.4637940926489 438.04587534956244 347.7981735661794 426.98053668239015 347.51854923714177 414.43731712601624C347.2389249081042 401.8940975696423 350.0037992661675 396.97382612866295 364.07905585584456 383.94944830696585C378.15431244552167 370.92507048526875 396.7210353729126 346.3792089635514 415.07978086759175 351.9203035818702C433.43852636227086 357.46139820018897 455.3188322774052 391.4112978252009 452.20103423030446 410.546702474896C449.08323618320367 429.68210712459114 418.19347140714945 436.7681209623517 400.11435024150796 443.7702459004068 "></path><path d="M441.76082738424356 408.4373802904637C439.26658894656293 423.7457040102198 414.55477712571957 429.41451508042826 400.0914801932064 435.01621503087233C385.62818326069316 440.6179149813164 381.1029689422412 440.21436151499364 372.3370021081802 435.3255400525952C363.57103527411914 430.43671859019685 358.2385388529435 421.58444765645896 358.0148393897134 411.54987201135987C357.79113992648337 401.51529636626077 360.003039412934 397.5790792134772 371.26324468467567 387.1595769561195C382.5234499564173 376.7400746987619 397.37682829833005 357.103385481388 412.0638246940734 361.536261176043C426.7508210898167 365.96913687069804 444.2550658219242 393.1290565707076 441.76082738424356 408.4373802904637C439.26658894656293 423.7457040102198 414.55477712571957 429.41451508042826 400.0914801932064 435.01621503087233 "></path><path d="M431.3206052793936 406.3280275884532C429.44992645113314 417.8092703782703 410.9160675855006 422.06087868092663 400.0685948861157 426.2621536437597C389.22112218673084 430.4634286065928 385.82721144789184 430.16076350685074 379.2527363223461 426.49414741005194C372.6782611968003 422.8275313132531 368.6788888809186 416.1883281129497 368.511114283496 408.66239637912537C368.3433396860735 401.13646464530103 370.00226430091146 398.1843017807134 378.44741825471766 390.3696750876951C386.8925722085239 382.5550483946769 398.03260596495846 367.8275314816465 409.04785326176597 371.15218825263776C420.06310055857347 374.47684502362904 433.19128410765404 394.8467847986362 431.3206052793936 406.3280275884532C429.44992645113314 417.8092703782703 410.9160675855006 422.06087868092663 400.0685948861157 426.2621536437597 "></path><path d="M420.8804136921218 404.21869014523185C419.63329447328147 411.8728520051099 407.27738856285976 414.70725754021413 400.0457400966032 417.50810751543617C392.8140916303466 420.3089574906582 390.5514844711206 420.10718075749685 386.1685010540901 417.6627700262976C381.78551763705957 415.2183592950984 379.11926942647176 410.7922238282295 379.0074196948567 405.77493600567993C378.89556996324166 400.75764818313036 380.001519706467 398.78953960673863 385.63162234233783 393.57978847805975C391.26172497820863 388.37003734938094 398.68841414916506 378.551692740694 406.03191234703667 380.7681305880215C413.37541054490833 382.98456843534905 422.1275329109621 396.5645282853538 420.8804136921218 404.21869014523185C419.63329447328147 411.8728520051099 407.27738856285976 414.70725754021413 400.0457400966032 417.50810751543617 "></path><path d="M410.44019158727184 402.1093527020104C409.81663197785167 405.93643363194946 403.6386790226408 407.35363639950157 400.0228547895125 408.7540613871126C396.40703055638426 410.15448637472366 395.27572697677124 410.05359800814296 393.084235268256 408.83139264254334C390.8927435597407 407.6091872769437 389.5596194544468 405.39611954350926 389.5036945886393 402.8874756322345C389.44776972283177 400.37883172095974 390.0007445944444 399.3947774327638 392.8157959123798 396.7899018684244C395.6308472303153 394.185026304085 399.34419181579347 389.2758539997415 403.0159409147293 390.3840729234053C406.68769001366513 391.49229184706905 411.06375119669195 398.28227177207145 410.44019158727184 402.1093527020104C409.81663197785167 405.93643363194946 403.6386790226408 407.35363639950157 400.0228547895125 408.7540613871126 "></path></g></svg>